<svg width="120" height="77" viewBox="0 0 120 77" fill="none" xmlns="http://www.w3.org/2000/svg">
<path d="M21.0334 28.6417H0V65.4118H21.0334V58.0578H8.37772V50.6592H20.8807V43.3051H8.37772V35.9957H21.0334V28.6417Z" fill="#5271FF"/>
<path d="M50.3589 54.0019C50.3589 47.3164 45.6799 41.8789 38.9955 41.8789C35.9207 41.8789 33.3807 42.904 31.509 44.7314V27.0817H23.6215V65.4118H31.4199V62.8268H31.509C33.2024 64.6987 35.8762 66.0804 38.9955 66.0804C45.6799 66.0804 50.3589 60.6874 50.3589 54.0019ZM41.9812 54.0019C41.9812 57.1218 39.8422 59.3503 36.6337 59.3503C33.5589 59.3503 31.3308 57.1218 31.3308 54.0019C31.3308 50.8374 33.6926 48.609 36.6337 48.609C39.6194 48.609 41.9812 50.8374 41.9812 54.0019Z" fill="#5271FF"/>
<path d="M52.449 65.4118H60.3365V27.0817H52.449V65.4118Z" fill="#5271FF"/>
<path d="M66.8689 28.4188C64.2843 28.4188 62.1899 30.5136 62.1899 33.0986C62.1899 35.6837 64.2843 37.7785 66.8689 37.7785C69.4535 37.7785 71.5479 35.6837 71.5479 33.0986C71.5479 30.5136 69.4535 28.4188 66.8689 28.4188ZM62.8137 42.5474H70.7013V65.4118H62.8137V42.5474Z" fill="#5271FF"/>
<path d="M75.3695 42.5474H72.0719V48.5644H75.3695V57.3447C75.3695 61.4005 76.8846 66.0804 83.1679 66.0804C86.421 66.0804 88.961 64.6541 88.961 64.6541L87.0003 58.2806C87.0003 58.2806 86.0645 58.9937 85.0395 58.9937C83.7918 58.9937 83.257 57.9686 83.257 55.8293V48.5644H87.094L87.0875 42.5474H83.257V34.0346H75.3695V42.5474Z" fill="#5271FF"/>
<path d="M107.994 42.5474L102.557 54.2693L96.6366 42.5474L88.3608 42.4896L97.9226 61.8462L90.0351 77H99.1258L117.084 42.5474H107.994Z" fill="#5271FF"/>
<path d="M66.8689 28.4198C64.2843 28.4198 62.1899 30.5146 62.1899 33.0996C62.1899 35.6847 64.2843 37.7795 66.8689 37.7795C69.4535 37.7795 71.548 35.6847 71.548 33.0996C71.548 30.5146 69.4535 28.4198 66.8689 28.4198ZM62.8137 42.5484H70.7013V65.4128H62.8137V42.5484Z" fill="#5271FF"/>
<path fill-rule="evenodd" clip-rule="evenodd" d="M110.642 4.67984C110.642 2.09479 112.736 0 115.321 0C117.906 0 120 2.09479 120 4.67984C120 7.2649 117.906 9.35968 115.321 9.35968C114.986 9.35968 114.659 9.3245 114.344 9.25763L104.957 20.8523C105.471 21.6038 105.772 22.5131 105.772 23.4927C105.772 26.0778 103.677 28.1726 101.093 28.1726C98.5082 28.1726 96.4137 26.0778 96.4137 23.4927C96.4137 23.2331 96.4349 22.9785 96.4755 22.7305L84.164 18.2487C83.3061 19.2391 82.0393 19.8654 80.626 19.8654C79.8846 19.8654 79.1836 19.6931 78.5607 19.3863L69.137 31.0256L67.6528 29.8235L77.0553 18.2104C76.3639 17.3948 75.947 16.339 75.947 15.1856C75.947 12.6006 78.0414 10.5058 80.626 10.5058C83.2106 10.5058 85.305 12.6006 85.305 15.1856C85.305 15.6628 85.2337 16.1233 85.101 16.5571L97.1647 20.9486C97.9985 19.6631 99.4462 18.8129 101.093 18.8129C102.004 18.8129 102.855 19.0735 103.574 19.5244L112.543 8.44663C111.39 7.59442 110.642 6.22467 110.642 4.67984ZM112.361 4.68034C112.361 3.0361 113.693 1.7037 115.337 1.7037C116.981 1.7037 118.313 3.0361 118.313 4.68034C118.313 6.32458 116.981 7.65697 115.337 7.65697C113.693 7.65697 112.361 6.32458 112.361 4.68034ZM80.642 12.2095C78.9981 12.2095 77.6659 13.5419 77.6659 15.1861C77.6659 16.8303 78.9981 18.1627 80.642 18.1627C82.286 18.1627 83.6182 16.8303 83.6182 15.1861C83.6182 13.5419 82.286 12.2095 80.642 12.2095ZM101.109 20.5166C99.4649 20.5166 98.1327 21.849 98.1327 23.4932C98.1327 25.1375 99.4649 26.4699 101.109 26.4699C102.753 26.4699 104.085 25.1375 104.085 23.4932C104.085 21.849 102.753 20.5166 101.109 20.5166Z" fill="#5271FF"/>
</svg>
